<?xml version="1.0" encoding="UTF-8" ?>
<!DOCTYPE svg PUBLIC "-//W3C//DTD SVG 1.1//EN" "http://www.w3.org/Graphics/SVG/1.1/DTD/svg11.dtd">
<svg width="336pt" height="273pt" viewBox="0 0 336 273" version="1.1" xmlns="http://www.w3.org/2000/svg">
<g id="#fdfdfdff">
<path fill="#fdfdfd" opacity="1.00" d=" M 0.00 0.00 L 336.00 0.00 L 336.00 273.00 L 0.00 273.00 L 0.00 0.00 M 224.98 3.75 C 223.23 8.12 220.98 12.25 219.09 16.56 C 216.22 12.12 214.82 6.83 211.17 2.89 C 205.85 4.75 204.58 11.01 202.02 15.42 C 199.47 11.33 197.69 6.56 194.08 3.26 C 189.02 4.35 188.70 11.52 184.68 14.58 C 169.35 14.63 154.01 14.82 138.68 14.46 C 138.60 11.73 138.35 8.99 137.36 6.42 C 121.55 6.12 105.74 6.29 89.93 6.26 C 85.05 5.50 86.50 11.37 86.11 14.38 C 70.28 15.56 54.04 13.00 38.46 15.65 C 38.45 50.77 38.55 85.90 38.46 121.01 C 38.77 123.43 35.62 123.14 34.11 123.81 C 19.57 126.47 10.19 144.58 16.57 157.95 C 18.32 162.35 22.18 165.33 25.21 168.81 C 28.64 172.79 34.46 172.23 38.50 175.20 C 38.31 204.27 38.66 233.35 38.32 262.41 C 42.33 264.15 46.77 263.25 51.00 263.42 C 110.68 263.44 170.38 263.31 230.05 263.73 C 255.95 264.82 282.20 264.43 308.30 264.58 C 308.92 263.12 309.64 261.65 309.50 260.03 C 309.38 247.34 309.58 234.64 309.42 221.96 C 308.89 218.31 308.31 214.66 309.25 211.02 C 309.85 189.52 309.01 167.97 309.67 146.47 C 315.99 146.10 322.47 147.28 328.67 145.66 C 328.60 144.01 328.55 142.36 328.49 140.70 C 314.84 140.54 301.19 140.74 287.54 140.65 C 286.55 142.68 286.48 144.82 288.24 146.45 C 294.29 146.44 300.34 146.50 306.39 146.40 C 306.84 184.36 306.70 222.37 306.41 260.33 C 269.61 260.44 232.81 260.29 196.00 260.22 C 144.55 258.97 93.02 260.20 41.55 259.46 C 41.38 232.29 41.61 205.12 41.53 177.95 C 40.85 172.97 47.64 173.91 50.64 172.05 C 67.62 166.05 70.60 141.35 58.56 129.32 C 53.77 125.32 47.50 123.92 41.69 122.06 C 41.45 87.51 41.51 52.95 41.61 18.40 C 47.99 16.38 54.55 19.04 61.04 18.45 C 69.08 17.15 77.11 19.10 85.21 18.60 C 85.56 22.36 86.14 27.39 91.04 27.37 C 105.40 27.62 119.78 27.63 134.15 27.59 C 138.29 27.44 138.73 22.72 138.71 19.52 C 154.50 19.20 170.30 19.52 186.10 19.36 C 190.48 19.17 191.41 13.90 193.29 10.79 C 195.88 15.55 197.47 21.21 201.98 24.60 C 205.20 21.78 207.28 18.04 208.55 14.00 C 208.96 13.04 209.80 10.59 211.17 11.89 C 214.26 15.95 213.97 22.34 219.13 24.83 C 223.33 21.43 224.91 16.16 227.23 11.51 C 230.20 16.04 231.34 22.76 237.08 24.62 C 240.55 20.58 240.76 14.39 245.17 11.15 C 248.20 15.59 247.84 23.51 254.21 24.51 C 257.07 20.95 259.28 16.93 260.92 12.67 C 261.27 12.62 261.97 12.51 262.31 12.45 C 264.12 15.34 265.74 19.77 269.94 19.38 C 282.14 19.48 294.34 19.27 306.54 19.46 C 306.78 55.26 306.68 91.07 306.64 126.88 C 300.66 128.11 294.51 126.96 288.46 127.60 C 288.25 129.97 288.73 133.23 291.94 132.49 C 303.59 131.99 315.15 133.87 326.79 133.26 C 329.62 133.23 330.97 128.88 328.24 127.63 C 322.02 126.78 315.59 128.36 309.48 126.57 C 309.04 114.04 310.14 101.45 308.77 88.97 C 310.50 64.95 308.50 40.72 309.69 16.68 C 303.87 13.96 297.18 15.99 290.99 15.29 C 284.37 14.45 277.70 14.88 271.07 14.53 C 266.55 12.37 266.00 3.69 260.54 3.61 C 257.24 6.96 255.69 12.08 252.97 16.05 C 249.97 11.60 249.40 2.47 242.36 3.36 C 239.80 7.00 238.24 11.19 236.65 15.32 C 232.94 12.14 231.46 7.21 228.61 3.34 C 227.40 3.48 226.19 3.61 224.98 3.75 M 105.82 35.07 C 106.33 42.95 101.71 49.77 101.25 57.49 C 102.69 57.48 104.13 57.48 105.57 57.48 C 106.99 54.50 105.35 50.15 108.11 48.07 C 111.15 49.39 110.78 53.94 112.42 56.61 C 113.89 56.62 115.37 56.64 116.84 56.65 C 115.76 53.33 114.58 50.04 113.30 46.79 C 115.49 45.09 118.28 43.74 119.40 41.04 C 119.67 34.28 110.44 32.90 105.82 35.07 M 220.58 34.42 C 221.70 42.61 216.01 49.37 215.39 57.29 C 221.05 58.90 229.03 59.79 231.57 53.00 C 231.05 52.26 230.54 51.52 230.04 50.77 C 227.68 53.58 224.95 56.60 220.88 55.64 C 221.57 48.28 224.77 41.51 226.88 34.50 C 224.77 34.48 222.68 34.45 220.58 34.42 M 184.49 86.56 C 181.82 90.60 186.45 95.27 190.34 92.07 C 190.32 90.21 190.01 88.37 189.46 86.60 C 187.80 86.59 186.14 86.58 184.49 86.56 M 264.16 148.19 C 267.24 149.11 270.55 148.41 273.71 148.44 L 273.76 146.52 C 270.84 146.20 267.41 147.07 264.90 145.13 C 261.84 139.82 264.05 132.90 268.86 129.44 C 272.56 128.51 276.48 129.22 278.48 132.74 C 279.46 130.84 280.26 128.84 280.61 126.72 C 276.48 126.64 272.33 126.40 268.21 126.78 C 259.44 128.88 255.58 143.50 264.16 148.19 M 78.79 137.70 C 78.91 145.07 76.27 152.16 73.20 158.74 C 77.65 160.36 82.54 159.47 87.17 159.47 C 89.59 158.70 88.58 155.85 88.51 154.01 C 86.00 155.61 83.32 156.99 80.26 156.87 C 80.37 153.91 79.96 150.47 82.93 148.73 C 83.44 149.37 84.47 150.63 84.99 151.27 C 86.45 149.59 87.77 147.78 88.74 145.76 C 86.56 145.72 84.39 145.72 82.22 145.71 C 82.31 139.68 88.40 138.05 92.52 141.73 C 92.50 140.36 92.47 138.99 92.45 137.63 C 87.90 137.62 83.34 137.51 78.79 137.70 Z" />
<path fill="#fdfdfd" opacity="1.00" d=" M 92.57 11.39 C 105.55 11.26 118.53 11.37 131.51 11.31 C 132.64 14.60 134.27 21.33 129.01 21.45 C 117.29 21.50 105.55 21.51 93.84 21.38 C 90.16 19.54 92.33 14.55 92.57 11.39 Z" />
<path fill="#fdfdfd" opacity="1.00" d=" M 108.30 44.75 C 107.74 41.15 109.01 37.93 112.12 35.93 C 116.60 39.30 113.44 45.26 108.30 44.75 Z" />
<path fill="#fdfdfd" opacity="1.00" d=" M 34.42 128.64 C 42.32 126.19 51.71 128.47 57.01 134.98 C 64.80 144.36 62.65 161.88 50.27 166.26 C 40.12 173.30 24.54 166.54 20.99 155.21 C 16.67 144.96 23.30 130.83 34.42 128.64 M 29.06 151.38 C 31.30 151.50 33.25 150.43 35.08 149.28 C 39.87 151.13 44.89 152.27 49.89 153.40 C 50.99 152.67 52.09 151.94 53.19 151.21 C 53.37 150.29 53.56 149.37 53.75 148.46 C 48.90 152.44 42.62 150.24 37.95 147.20 C 34.25 144.84 30.51 148.01 29.06 151.38 Z" />
</g>
<g id="#7e7e7cff">
<path fill="#7e7e7c" opacity="1.00" d=" M 224.98 3.75 C 226.19 3.61 227.40 3.48 228.61 3.34 C 231.46 7.21 232.94 12.14 236.65 15.32 C 238.24 11.19 239.80 7.00 242.36 3.36 C 249.40 2.47 249.97 11.60 252.97 16.05 C 255.69 12.08 257.24 6.96 260.54 3.61 C 266.00 3.69 266.55 12.37 271.07 14.53 C 277.70 14.88 284.37 14.45 290.99 15.29 C 297.18 15.99 303.87 13.96 309.69 16.68 C 308.50 40.72 310.50 64.95 308.77 88.97 C 310.14 101.45 309.04 114.04 309.48 126.57 C 315.59 128.36 322.02 126.78 328.24 127.63 C 330.97 128.88 329.62 133.23 326.79 133.26 C 315.15 133.87 303.59 131.99 291.94 132.49 C 288.73 133.23 288.25 129.97 288.46 127.60 C 294.51 126.96 300.66 128.11 306.64 126.88 C 306.68 91.07 306.78 55.26 306.54 19.46 C 294.34 19.27 282.14 19.48 269.94 19.38 C 265.74 19.77 264.12 15.34 262.31 12.45 C 261.97 12.51 261.27 12.62 260.92 12.67 C 259.28 16.93 257.07 20.95 254.21 24.51 C 247.84 23.51 248.20 15.59 245.17 11.15 C 240.76 14.39 240.55 20.58 237.08 24.62 C 231.34 22.76 230.20 16.04 227.23 11.51 C 224.91 16.16 223.33 21.43 219.13 24.83 C 213.97 22.34 214.26 15.95 211.17 11.89 C 209.80 10.59 208.96 13.04 208.55 14.00 C 207.28 18.04 205.20 21.78 201.98 24.60 C 197.47 21.21 195.88 15.55 193.29 10.79 C 191.41 13.90 190.48 19.17 186.10 19.36 C 170.30 19.52 154.50 19.20 138.71 19.52 C 138.73 22.72 138.29 27.44 134.15 27.59 C 119.78 27.63 105.40 27.62 91.04 27.37 C 86.14 27.39 85.56 22.36 85.21 18.60 C 77.11 19.10 69.08 17.15 61.04 18.45 C 54.55 19.04 47.99 16.38 41.61 18.40 C 41.51 52.95 41.45 87.51 41.69 122.06 C 47.50 123.92 53.77 125.32 58.56 129.32 C 70.60 141.35 67.62 166.05 50.64 172.05 C 47.64 173.91 40.85 172.97 41.53 177.95 C 41.61 205.12 41.38 232.29 41.55 259.46 C 93.02 260.20 144.55 258.97 196.00 260.22 C 232.81 260.29 269.61 260.44 306.41 260.33 C 306.70 222.37 306.84 184.36 306.39 146.40 C 300.34 146.50 294.29 146.44 288.24 146.45 C 286.48 144.82 286.55 142.68 287.54 140.65 C 301.19 140.74 314.84 140.54 328.49 140.70 C 328.55 142.36 328.60 144.01 328.67 145.66 C 322.47 147.28 315.99 146.10 309.67 146.47 C 309.01 167.97 309.85 189.52 309.25 211.02 C 308.31 214.66 308.89 218.31 309.42 221.96 C 309.58 234.64 309.38 247.34 309.50 260.03 C 309.64 261.65 308.92 263.12 308.30 264.58 C 282.20 264.43 255.95 264.82 230.05 263.73 C 170.38 263.31 110.68 263.44 51.00 263.42 C 46.77 263.25 42.33 264.15 38.32 262.41 C 38.66 233.35 38.31 204.27 38.50 175.20 C 34.46 172.23 28.64 172.79 25.21 168.81 C 22.18 165.33 18.32 162.35 16.57 157.95 C 10.19 144.58 19.57 126.47 34.11 123.81 C 35.62 123.14 38.77 123.43 38.46 121.01 C 38.55 85.90 38.45 50.77 38.46 15.65 C 54.04 13.00 70.28 15.56 86.11 14.38 C 86.50 11.37 85.05 5.50 89.93 6.26 C 105.74 6.29 121.55 6.12 137.36 6.42 C 138.35 8.99 138.60 11.73 138.68 14.46 C 154.01 14.82 169.35 14.63 184.68 14.58 C 188.70 11.52 189.02 4.35 194.08 3.26 C 197.69 6.56 199.47 11.33 202.02 15.42 C 204.58 11.01 205.85 4.75 211.17 2.89 C 214.82 6.83 216.22 12.12 219.09 16.56 C 220.98 12.25 223.23 8.12 224.98 3.75 M 92.57 11.39 C 92.33 14.55 90.16 19.54 93.84 21.38 C 105.55 21.51 117.29 21.50 129.01 21.45 C 134.27 21.33 132.64 14.60 131.51 11.31 C 118.53 11.37 105.55 11.26 92.57 11.39 M 34.42 128.64 C 23.30 130.83 16.67 144.96 20.99 155.21 C 24.54 166.54 40.12 173.30 50.27 166.26 C 62.65 161.88 64.80 144.36 57.01 134.98 C 51.71 128.47 42.32 126.19 34.42 128.64 Z" />
<path fill="#7e7e7c" opacity="1.00" d=" M 105.82 35.07 C 110.44 32.90 119.67 34.28 119.40 41.04 C 118.28 43.74 115.49 45.09 113.30 46.79 C 114.58 50.04 115.76 53.33 116.84 56.65 C 115.37 56.64 113.89 56.62 112.42 56.61 C 110.78 53.94 111.15 49.39 108.11 48.07 C 105.35 50.15 106.99 54.50 105.57 57.48 C 104.13 57.48 102.69 57.48 101.25 57.49 C 101.71 49.77 106.33 42.95 105.82 35.07 M 108.30 44.75 C 113.44 45.26 116.60 39.30 112.12 35.93 C 109.01 37.93 107.74 41.15 108.30 44.75 Z" />
<path fill="#7e7e7c" opacity="1.00" d=" M 220.58 34.42 C 222.68 34.45 224.77 34.48 226.88 34.50 C 224.77 41.51 221.57 48.28 220.88 55.64 C 224.95 56.60 227.68 53.58 230.04 50.77 C 230.54 51.52 231.05 52.26 231.57 53.00 C 229.03 59.79 221.05 58.90 215.39 57.29 C 216.01 49.37 221.70 42.61 220.58 34.42 Z" />
<path fill="#7e7e7c" opacity="1.00" d=" M 184.49 86.56 C 186.14 86.58 187.80 86.59 189.46 86.60 C 190.01 88.37 190.32 90.21 190.34 92.07 C 186.45 95.27 181.82 90.60 184.49 86.56 Z" />
<path fill="#7e7e7c" opacity="1.00" d=" M 264.16 148.19 C 255.58 143.50 259.44 128.88 268.21 126.78 C 272.33 126.40 276.48 126.64 280.61 126.72 C 280.26 128.84 279.46 130.84 278.48 132.74 C 276.48 129.22 272.56 128.51 268.86 129.44 C 264.05 132.90 261.84 139.82 264.90 145.13 C 267.41 147.07 270.84 146.20 273.76 146.52 L 273.71 148.44 C 270.55 148.41 267.24 149.11 264.16 148.19 Z" />
<path fill="#7e7e7c" opacity="1.00" d=" M 78.79 137.70 C 83.34 137.51 87.90 137.62 92.45 137.63 C 92.47 138.99 92.50 140.36 92.52 141.73 C 88.40 138.05 82.31 139.68 82.22 145.71 C 84.39 145.72 86.56 145.72 88.74 145.76 C 87.77 147.78 86.45 149.59 84.99 151.27 C 84.47 150.63 83.44 149.37 82.93 148.73 C 79.96 150.47 80.37 153.91 80.26 156.87 C 83.32 156.99 86.00 155.61 88.51 154.01 C 88.58 155.85 89.59 158.70 87.17 159.47 C 82.54 159.47 77.65 160.36 73.20 158.74 C 76.27 152.16 78.91 145.07 78.79 137.70 Z" />
<path fill="#7e7e7c" opacity="1.00" d=" M 29.06 151.38 C 30.51 148.01 34.25 144.84 37.95 147.20 C 42.62 150.24 48.90 152.44 53.75 148.46 C 53.56 149.37 53.37 150.29 53.19 151.21 C 52.09 151.94 50.99 152.67 49.89 153.40 C 44.89 152.27 39.87 151.13 35.08 149.28 C 33.25 150.43 31.30 151.50 29.06 151.38 Z" />
</g>
</svg>
