<?xml version="1.0" encoding="UTF-8"?>
<svg id="a" data-name="图层 1" xmlns="http://www.w3.org/2000/svg" viewBox="0 0 188.70944 151.31104">
  <defs>
    <style>
      .b, .c, .d, .e, .f, .g, .h {
        fill: none;
        stroke-miterlimit: 10;
      }

      .b, .d, .h {
        stroke: #22ac38;
      }

      .c {
        stroke: #231815;
      }

      .d, .e, .g, .h {
        stroke-width: .5px;
      }

      .d, .g {
        stroke-dasharray: 0 0 12.23118 12.23118;
      }

      .e, .f, .g {
        stroke: #00a0e9;
      }

      .i {
        fill: #e60012;
      }

      .i, .j {
        font-family: TimesNewRomanPSMT, 'Times New Roman';
      }

      .i, .j, .k {
        font-size: 10px;
      }

      .j, .k, .l {
        fill: #231815;
      }

      .k {
        font-family: TimesNewRomanPS-BoldMT, 'Times New Roman';
        font-weight: 700;
      }
    </style>
  </defs>
  <path class="c" d="M17.70413,114.5978c.40367,.83209,.80292,1.6758,1.19923,2.52724s.78966,1.71063,1.18154,2.57369,.78228,1.72998,1.17269,2.59691,.78081,1.73385,1.17269,2.59691,.78523,1.72224,1.18154,2.57369,.79555,1.69515,1.19923,2.52724,.81177,1.65257,1.22576,2.45757,.83388,1.59452,1.26114,2.36468,.86189,1.52098,1.30537,2.24857,.8958,1.43196,1.35844,2.10923,.9356,1.32745,1.42036,1.94667,.9813,1.20747,1.49112,1.76089,1.0329,1.072,1.57073,1.55188,1.0904,.92105,1.65918,1.31965,1.15379,.75462,1.75648,1.0642,1.22308,.57271,1.86262,.78552,1.29826,.37531,1.97761,.48362,1.37934,.16244,2.10145,.1585,1.46632-.06592,2.23413-.18984,1.51128-.30203,2.23184-.53093,1.41825-.5086,2.09458-.83571,1.33132-.70163,1.96648-1.12017,1.25049-.88111,1.84752-1.38431,1.17576-1.04704,1.73771-1.62813,1.10713-1.19943,1.63706-1.85164,1.0446-1.33827,1.54555-2.05482,.98817-1.46357,1.4632-2.23769,.93785-1.57532,1.38999-2.40024,.89362-1.67353,1.32594-2.54247,.85549-1.75819,1.27103-2.66438,.82346-1.82931,1.22528-2.76597,.79754-1.88688,1.18868-2.84725,.77771-1.9309,1.16123-2.9082,.76399-1.96138,1.14293-2.94884,.75636-1.97831,1.13378-2.96916,.75483-1.9817,1.13378-2.96916,.75941-1.97154,1.14293-2.94884,.77009-1.94783,1.16123-2.9082,.78686-1.91058,1.18868-2.84725,.80974-1.85978,1.22528-2.76597,.83871-1.79544,1.27103-2.66438,.87379-1.71755,1.32594-2.54247,.91497-1.62612,1.38999-2.40024,.96225-1.52114,1.4632-2.23769,1.01562-1.40262,1.54555-2.05482,1.0751-1.27055,1.63706-1.85164,1.14068-1.12493,1.73771-1.62813,1.21236-.96577,1.84752-1.38431,1.29014-.79306,1.96648-1.12017,1.37402-.60681,2.09458-.83571,1.464-.40701,2.23184-.53093,1.51209-.18592,2.23423-.18986,1.42216,.05018,2.10154,.15849,1.33813,.2708,1.9777,.48361,1.25999,.47594,1.86271,.78551,1.18775,.66559,1.75656,1.06418,1.12141,.83976,1.65926,1.31964,1.06096,.99845,1.5708,1.55187,1.00641,1.14166,1.49119,1.76087,.95776,1.26939,1.42042,1.94666,.91501,1.38163,1.3585,2.10922,.87815,1.4784,1.30543,2.24856,.84719,1.55968,1.2612,2.36467,.82213,1.62547,1.22582,2.45756,.80296,1.67579,1.19928,2.52723,.78969,1.71063,1.18159,2.57368,.78232,1.72998,1.17274,2.5969,.78085,1.73385,1.17274,2.5969,.78527,1.72224,1.18159,2.57368,.79559,1.69514,1.19928,2.52723"/>
  <path class="f" d="M17.70413,80.71786c.40367,.83209,.80292,1.6758,1.19923,2.52724s.78966,1.71063,1.18154,2.57369,.78228,1.72998,1.17269,2.59691,.78081,1.73385,1.17269,2.59691,.78523,1.72224,1.18154,2.57369,.79555,1.69515,1.19923,2.52724,.81177,1.65257,1.22576,2.45757,.83388,1.59452,1.26114,2.36468,.86189,1.52098,1.30537,2.24857,.8958,1.43196,1.35844,2.10923,.9356,1.32745,1.42036,1.94667,.9813,1.20747,1.49112,1.76089,1.0329,1.072,1.57073,1.55188,1.0904,.92105,1.65918,1.31965,1.15379,.75462,1.75648,1.0642,1.22308,.57271,1.86262,.78552,1.29826,.37531,1.97761,.48362,1.37934,.16244,2.10145,.1585,1.46632-.06592,2.23413-.18984,1.51128-.30203,2.23184-.53093,1.41825-.5086,2.09458-.83571,1.33132-.70163,1.96648-1.12017,1.25049-.88111,1.84752-1.38431,1.17576-1.04704,1.73771-1.62813,1.10713-1.19943,1.63706-1.85164,1.0446-1.33827,1.54555-2.05482,.98817-1.46357,1.4632-2.23769,.93785-1.57532,1.38999-2.40024,.89362-1.67353,1.32594-2.54247,.85549-1.75819,1.27103-2.66438,.82346-1.82931,1.22528-2.76597,.79754-1.88688,1.18868-2.84725,.77771-1.9309,1.16123-2.9082,.76399-1.96138,1.14293-2.94884,.75636-1.97831,1.13378-2.96916,.75483-1.9817,1.13378-2.96916,.75941-1.97154,1.14293-2.94884,.77009-1.94783,1.16123-2.9082,.78686-1.91058,1.18868-2.84725,.80974-1.85978,1.22528-2.76597,.83871-1.79544,1.27103-2.66438,.87379-1.71755,1.32594-2.54247,.91497-1.62612,1.38999-2.40024,.96225-1.52114,1.4632-2.23769,1.01562-1.40262,1.54555-2.05482,1.0751-1.27055,1.63706-1.85164,1.14068-1.12493,1.73771-1.62813,1.21236-.96577,1.84752-1.38431,1.29014-.79306,1.96648-1.12017,1.37402-.60681,2.09458-.83571,1.464-.40701,2.23184-.53093,1.51209-.18592,2.23423-.18986,1.42216,.05018,2.10154,.15849,1.33813,.2708,1.9777,.48361,1.25999,.47594,1.86271,.78551,1.18775,.66559,1.75656,1.06418,1.12141,.83976,1.65926,1.31964,1.06096,.99845,1.5708,1.55187,1.00641,1.14166,1.49119,1.76087,.95776,1.26939,1.42042,1.94666,.91501,1.38163,1.3585,2.10922,.87815,1.4784,1.30543,2.24856,.84719,1.55968,1.2612,2.36467,.82213,1.62547,1.22582,2.45756,.80296,1.67579,1.19928,2.52723,.78969,1.71063,1.18159,2.57368,.78232,1.72998,1.17274,2.5969,.78085,1.73385,1.17274,2.5969,.78527,1.72224,1.18159,2.57368,.79559,1.69514,1.19928,2.52723"/>
  <path class="b" d="M17.70413,46.83791c.40367,.83209,.80292,1.6758,1.19923,2.52724s.78966,1.71063,1.18154,2.57369,.78228,1.72998,1.17269,2.59691,.78081,1.73385,1.17269,2.59691,.78523,1.72224,1.18154,2.57369,.79555,1.69515,1.19923,2.52724,.81177,1.65257,1.22576,2.45757,.83388,1.59452,1.26114,2.36468,.86189,1.52098,1.30537,2.24857,.8958,1.43196,1.35844,2.10923,.9356,1.32745,1.42036,1.94667,.9813,1.20747,1.49112,1.76089,1.0329,1.072,1.57073,1.55188,1.0904,.92105,1.65918,1.31965,1.15379,.75462,1.75648,1.0642,1.22308,.57271,1.86262,.78552,1.29826,.37531,1.97761,.48362,1.37934,.16244,2.10145,.1585,1.46632-.06592,2.23413-.18984,1.51128-.30203,2.23184-.53093,1.41825-.5086,2.09458-.83571,1.33132-.70163,1.96648-1.12017,1.25049-.88111,1.84752-1.38431,1.17576-1.04704,1.73771-1.62813,1.10713-1.19943,1.63706-1.85164,1.0446-1.33827,1.54555-2.05482,.98817-1.46357,1.4632-2.23769,.93785-1.57532,1.38999-2.40024,.89362-1.67353,1.32594-2.54247,.85549-1.75819,1.27103-2.66438,.82346-1.82931,1.22528-2.76597,.79754-1.88688,1.18868-2.84725,.77771-1.9309,1.16123-2.9082,.76399-1.96138,1.14293-2.94884,.75636-1.97831,1.13378-2.96916,.75483-1.9817,1.13378-2.96916,.75941-1.97154,1.14293-2.94884,.77009-1.94783,1.16123-2.9082,.78686-1.91058,1.18868-2.84725,.80974-1.85978,1.22528-2.76597,.83871-1.79544,1.27103-2.66438,.87379-1.71755,1.32594-2.54247,.91497-1.62612,1.38999-2.40024,.96225-1.52114,1.4632-2.23769,1.01562-1.40262,1.54555-2.05482,1.0751-1.27055,1.63706-1.85164,1.14068-1.12493,1.73771-1.62813,1.21236-.96577,1.84752-1.38431,1.29014-.79306,1.96648-1.12017,1.37402-.60681,2.09458-.83571,1.464-.40701,2.23184-.53093,1.51209-.18592,2.23423-.18986,1.42216,.05018,2.10154,.15849,1.33813,.2708,1.9777,.48361,1.25999,.47594,1.86271,.78551,1.18775,.66559,1.75656,1.06418,1.12141,.83976,1.65926,1.31964,1.06096,.99845,1.5708,1.55187,1.00641,1.14166,1.49119,1.76087,.95776,1.26939,1.42042,1.94666,.91501,1.38163,1.3585,2.10922,.87815,1.4784,1.30543,2.24856,.84719,1.55968,1.2612,2.36467,.82213,1.62547,1.22582,2.45756,.80296,1.67579,1.19928,2.52723,.78969,1.71063,1.18159,2.57368,.78232,1.72998,1.17274,2.5969,.78085,1.73385,1.17274,2.5969,.78527,1.72224,1.18159,2.57368,.79559,1.69514,1.19928,2.52723"/>
  <g>
    <line class="c" x1=".20811" y1="114.36473" x2="181.6489" y2="114.36473"/>
    <polygon class="l" points="188.70944 114.36473 178.76022 118.43016 181.12106 114.36473 178.76022 110.30028 188.70944 114.36473"/>
  </g>
  <g>
    <line class="e" x1="17.70413" y1="80.48479" x2="23.70413" y2="80.48479"/>
    <line class="g" x1="35.93532" y1="80.48479" x2="176.59387" y2="80.48479"/>
    <line class="e" x1="182.70944" y1="80.48479" x2="188.70944" y2="80.48479"/>
  </g>
  <g>
    <line class="h" x1="17.70413" y1="46.60484" x2="23.70413" y2="46.60484"/>
    <line class="d" x1="35.93532" y1="46.60484" x2="176.59387" y2="46.60484"/>
    <line class="h" x1="182.70944" y1="46.60484" x2="188.70944" y2="46.60484"/>
  </g>
  <g>
    <line class="c" x1="17.70413" y1="148.24463" x2="17.70413" y2="10.61317"/>
    <polygon class="l" points="17.70413 3.55262 21.76956 13.50184 17.70413 11.141 13.63968 13.50184 17.70413 3.55262"/>
  </g>
  <text class="j" transform="translate(130.08886 107.16171)"><tspan x="0" y="0">G1, G2</tspan></text>
  <text class="j" transform="translate(130.08886 71.47137)"><tspan x="0" y="0">G3</tspan></text>
  <text class="j" transform="translate(130.08886 35.78133)"><tspan x="0" y="0">G4</tspan></text>
  <text class="k" transform="translate(.00011 8.31073)"><tspan x="0" y="0">B//</tspan></text>
  <text class="i" transform="translate(169.69592 148.24475)"><tspan x="0" y="0">(c)</tspan></text>
</svg>